<svg xmlns="http://www.w3.org/2000/svg" viewBox="0 0 128 128">
  <rect width="128" height="128" rx="12" fill="#232F3E"/>
  <path fill="#FF9900" d="M39 70c0 2 0 4 1 5l1 3c0 1-1 1-1 2l-4 2-1 1c-1 0-1-1-2-1l-2-3-1-3c-3 4-8 6-13 6-4 0-7-1-10-3s-4-5-4-9c0-4 2-8 5-10s8-4 14-4h11v-3c0-3-1-5-2-6-2-2-5-2-8-2l-6 1-5 2-2 1c-1 0-1 0-1-1v-3l1-2 1-1c2-1 4-2 7-2l9-1c7 0 12 2 15 5s5 7 5 13zm-20 8c2 0 4-1 6-1 2-1 4-2 5-4l2-4 1-5v-3h-9l-7 2-4 3-1 5c0 3 1 5 2 6 2 1 3 1 5 1zm40 6c-1 0-2 0-2-1l-2-2-14-47-1-3 1-1h6c1 0 2 0 2 1l1 2 10 39 9-39 1-2 2-1h5l2 1 1 2 9 40 10-40 1-2 2-1h5c1 0 1 0 1 1l-1 4-14 47-2 2h-7c-1 0-1-1-2-1l-1-3-9-38-9 38-1 3-1 1z"/>
</svg>
