<svg xmlns="http://www.w3.org/2000/svg" viewBox="0 0 128 128">
  <rect width="128" height="128" rx="12" fill="#0A0A0A"/>
  <g fill="#2496ED">
    <rect x="18" y="58" width="14" height="14" rx="1"/>
    <rect x="34" y="58" width="14" height="14" rx="1"/>
    <rect x="50" y="58" width="14" height="14" rx="1"/>
    <rect x="66" y="58" width="14" height="14" rx="1"/>
    <rect x="34" y="42" width="14" height="14" rx="1"/>
    <rect x="50" y="42" width="14" height="14" rx="1"/>
    <rect x="66" y="42" width="14" height="14" rx="1"/>
    <rect x="50" y="26" width="14" height="14" rx="1"/>
    <rect x="66" y="26" width="14" height="14" rx="1"/>
    <path d="M108 62c-4 0-7 1-9 3-1-8-7-11-12-12l-2 4c4 2 7 6 7 13 0 4-1 7-3 10-4 5-11 8-19 8-19 0-35-11-43-27-2 10 1 22 9 31 10 11 25 15 40 11 17-4 28-16 31-33 4 1 8 0 11-3l1-5z"/>
  </g>
</svg>
