<svg xmlns="http://www.w3.org/2000/svg" viewBox="0 0 128 128">
  <path fill="#6DB33F" d="M116.45 6.48a50.48 50.48 0 0 1-6.25 11.11A56.46 56.46 0 1 0 32 97.17l2.13 1.79a57.13 57.13 0 0 0 32.51 13.06c31 2 58.55-20.78 64.11-51.43 4.11-15 0-34.11-14.3-54.11zM34.75 94.5a4.63 4.63 0 1 1-.54-6.51 4.52 4.52 0 0 1 .54 6.51zM116.32 75.8c-11.61 15.49-36.46 10.28-52.36 11-4 .2-11.16.82-13.64 2.93a28.23 28.23 0 0 1 2.7-8.3c3.73-6.72 7.4-10.38 10.28-16.57 5.13-11.2 10.24-20.93 19.58-27.81 20.97-13.64 35.14-4.92 33.44 38.75z"/>
</svg>
