<svg xmlns="http://www.w3.org/2000/svg" viewBox="0 0 128 128">
  <rect width="128" height="128" rx="24" fill="#232F3E"/>
  <path fill="#FF9900" d="M36 80c0 2 0 3 1 4l1 2c0 1-1 1-1 1l-3 2h-1l-1-1-2-2-1-3c-2 3-6 5-10 5-3 0-5-1-7-3s-3-4-3-7 1-6 4-8 6-3 11-3h9v-3c0-3-1-4-2-5-1-1-3-2-6-2h-4l-4 2h-2l-1-1v-2l1-1 1-1c2-1 3-1 5-2h7c5 0 9 1 11 3s3 5 3 10zm-16 6l4-1 4-3 1-3 1-4v-2h-7l-5 1-3 3v3c0 2 0 4 1 4 2 1 3 1 4 1zm30 4l-1-1-1-1-11-35v-2l1-1h4l2 1v1l8 29 7-29 1-1 1-1h4l2 1v1l7 29 8-29 1-1 1-1h4l1 1v3l-11 35-1 1h-5v-1l-1-2-7-28-7 28-1 2-1 1z"/>
</svg>
