<svg xmlns="http://www.w3.org/2000/svg" viewBox="0 0 800 500" width="800" height="500">
  <defs>
    <linearGradient id="ie" x1="0" y1="0" x2="1" y2="1">
      <stop offset="0" stop-color="#7C3AED"/>
      <stop offset="1" stop-color="#1E1B4B"/>
    </linearGradient>
  </defs>
  <rect width="800" height="500" fill="url(#ie)"/>
  <g transform="translate(180,90)" fill="#fff">
    <rect width="440" height="280" rx="14" opacity="0.12"/>
    <rect x="20" y="30" width="120" height="20" rx="4"/>
    <rect x="160" y="30" width="80" height="20" rx="4" opacity="0.6"/>
    <rect x="20" y="70" width="400" height="8" opacity="0.4"/>
    <rect x="20" y="90" width="380" height="8" opacity="0.4"/>
    <rect x="20" y="110" width="360" height="8" opacity="0.4"/>
    <circle cx="60" cy="180" r="22" fill="#22C55E"/>
    <circle cx="130" cy="180" r="22" fill="#22C55E"/>
    <circle cx="200" cy="180" r="22" fill="#F59E0B"/>
    <circle cx="270" cy="180" r="22" fill="#EF4444"/>
    <rect x="20" y="220" width="400" height="40" rx="8" opacity="0.2"/>
    <rect x="30" y="232" width="280" height="16" rx="4"/>
  </g>
  <text x="400" y="420" text-anchor="middle" font-family="Ubuntu, sans-serif" font-weight="700" font-size="32" fill="#fff">IELTS Helper</text>
  <text x="400" y="452" text-anchor="middle" font-family="Poppins, sans-serif" font-size="16" fill="#c4b5fd">Next.js · NestJS · PostgreSQL · BullMQ · OpenAI</text>
</svg>
